<svg xmlns="http://www.w3.org/2000/svg" width="162" height="98" viewBox="0 0 162 98">
  <g id="Group_38594" data-name="Group 38594" transform="translate(-366 267)">
    <path id="Path_1" data-name="Path 1" d="M109.773,92.862V91.656l.089,0q1.337,0,1.862-1.779l1.223.187a3.781,3.781,0,0,1-1.107,2.093,2.9,2.9,0,0,1-1.986.7h-.081Zm0-4.149h0V87.505h1.957a3.337,3.337,0,0,0-.473-1.678,1.731,1.731,0,0,0-1.461-.808h-.023V83.812h.031a2.784,2.784,0,0,1,2.272,1.157,5.334,5.334,0,0,1,.911,3.352l-.006.393Zm5.031,1.369h0l1.177-.228a2.148,2.148,0,0,0,.571,1.358,2,2,0,0,0,2.437.059,1.275,1.275,0,0,0,.424-.983.962.962,0,0,0-.364-.8A4.555,4.555,0,0,0,117.843,89a8.733,8.733,0,0,1-1.853-.735,2.047,2.047,0,0,1-.726-.807,2.5,2.5,0,0,1-.256-1.149,2.433,2.433,0,0,1,.7-1.8,2.644,2.644,0,0,1,1.944-.693,3.138,3.138,0,0,1,1.372.287,2.189,2.189,0,0,1,.909.765,3.378,3.378,0,0,1,.434,1.377l-1.161.2a1.417,1.417,0,0,0-.449-1.053,1.382,1.382,0,0,0-1.074-.366,1.788,1.788,0,0,0-1.153.315,1,1,0,0,0-.376.8.91.91,0,0,0,.359.76,6.367,6.367,0,0,0,1.29.521,10.178,10.178,0,0,1,1.911.763,1.931,1.931,0,0,1,.676.768,2.585,2.585,0,0,1,.242,1.153,2.7,2.7,0,0,1-.778,2.006,2.9,2.9,0,0,1-2.124.765q-2.524,0-2.925-2.789Zm-5.031-6.271h0v1.207a1.728,1.728,0,0,0-1.339.675,2.944,2.944,0,0,0-.618,1.812h1.957v1.208h-2.031a3.791,3.791,0,0,0,.668,2.2,1.815,1.815,0,0,0,1.363.741v1.206a2.943,2.943,0,0,1-2.334-1.143,5.186,5.186,0,0,1-.921-3.307,5.432,5.432,0,0,1,.929-3.421A2.884,2.884,0,0,1,109.773,83.812ZM97.459,96.182h0V94.964a1.812,1.812,0,0,0,1.092-.375,1.964,1.964,0,0,0,.633-1.13,11.013,11.013,0,0,0,.1-1.923,2.769,2.769,0,0,1-.869.846,2.047,2.047,0,0,1-.96.285V91.452a1.661,1.661,0,0,0,1.362-.765,4.163,4.163,0,0,0,.563-2.438,4.112,4.112,0,0,0-.58-2.424,1.711,1.711,0,0,0-1.345-.795V83.814a2.107,2.107,0,0,1,1.026.309,2.835,2.835,0,0,1,.907.93V84.009h1.094v7.484a8.919,8.919,0,0,1-.321,2.851,2.757,2.757,0,0,1-1.054,1.344,3.027,3.027,0,0,1-1.652.494ZM103.1,82.4h0v-1.69h1.185V82.4Zm0,10.266h0V84.009h1.185v8.659Zm-5.644-8.854h0v1.215h-.066a1.592,1.592,0,0,0-1.3.8,4.114,4.114,0,0,0-.559,2.36,4.36,4.36,0,0,0,.555,2.486,1.631,1.631,0,0,0,1.362.782h.008v1.214l-.112,0a2.535,2.535,0,0,1-2.088-1.077,5.326,5.326,0,0,1-.951-3.318,6.5,6.5,0,0,1,.421-2.439,3.358,3.358,0,0,1,1.1-1.533,2.558,2.558,0,0,1,1.526-.49c.036,0,.071,0,.1,0Zm0,11.149h0v1.219l-.112,0a2.816,2.816,0,0,1-2.1-.744,2.728,2.728,0,0,1-.71-2.054L95.7,93.6a1.517,1.517,0,0,0,.484,1.032,1.693,1.693,0,0,0,1.119.336c.053,0,.1,0,.154,0Zm-8.182-2.1h0V91.657h.031a1.742,1.742,0,0,0,1.438-.83,5.443,5.443,0,0,0,0-4.982,1.81,1.81,0,0,0-1.466-.818V83.812h0a2.92,2.92,0,0,1,2.343,1.143,5.04,5.04,0,0,1,.943,3.293,5.437,5.437,0,0,1-.927,3.474,2.905,2.905,0,0,1-2.36,1.142Zm0-9.052h0v1.216h-.033a1.751,1.751,0,0,0-1.444.824,5.489,5.489,0,0,0,.008,4.985,1.806,1.806,0,0,0,1.468.82v1.206a2.914,2.914,0,0,1-2.348-1.144,6.578,6.578,0,0,1-.008-6.765,2.907,2.907,0,0,1,2.356-1.143ZM77.124,92.864h0V91.657h.03a1.74,1.74,0,0,0,1.438-.83,5.439,5.439,0,0,0,0-4.982,1.81,1.81,0,0,0-1.466-.818V83.812h0a2.919,2.919,0,0,1,2.343,1.143,5.039,5.039,0,0,1,.943,3.293,5.437,5.437,0,0,1-.927,3.474A2.9,2.9,0,0,1,77.124,92.864Zm5.459-.195h0V80.713h1.182V92.669Zm-5.459-8.857h0v1.216h-.033a1.752,1.752,0,0,0-1.444.824,5.5,5.5,0,0,0,.008,4.985,1.809,1.809,0,0,0,1.469.82v1.206a2.914,2.914,0,0,1-2.349-1.144,6.576,6.576,0,0,1-.008-6.765,2.908,2.908,0,0,1,2.357-1.143Zm-32.58,9.051h0V91.656l.089,0q1.337,0,1.862-1.779l1.224.187a3.786,3.786,0,0,1-1.109,2.093,2.893,2.893,0,0,1-1.986.7h-.081Zm0-4.149h0V87.505H46.5a3.333,3.333,0,0,0-.473-1.678,1.729,1.729,0,0,0-1.46-.808h-.023V83.812h.031a2.783,2.783,0,0,1,2.272,1.157,5.332,5.332,0,0,1,.91,3.352l-.006.393Zm10.083.782h0l1.169.189a3.972,3.972,0,0,1-1.012,2.364,2.634,2.634,0,0,1-1.945.816,2.757,2.757,0,0,1-2.269-1.144,5.457,5.457,0,0,1-.891-3.391,5.373,5.373,0,0,1,.9-3.388,2.826,2.826,0,0,1,2.308-1.129,2.61,2.61,0,0,1,1.834.685,3.4,3.4,0,0,1,.954,2.056l-1.152.22a2.546,2.546,0,0,0-.588-1.316,1.338,1.338,0,0,0-1.007-.438,1.736,1.736,0,0,0-1.455.788,4.283,4.283,0,0,0-.575,2.5,4.582,4.582,0,0,0,.553,2.561,1.661,1.661,0,0,0,1.413.791,1.508,1.508,0,0,0,1.155-.525A2.9,2.9,0,0,0,54.628,89.5Zm2.978,3.174h0V80.713h1.185V85a3,3,0,0,1,.946-.894,2.344,2.344,0,0,1,1.166-.3,2.262,2.262,0,0,1,1.768.723,4.023,4.023,0,0,1,.65,2.644v5.49H62.135v-5.49a2.585,2.585,0,0,0-.4-1.614,1.318,1.318,0,0,0-1.086-.491,1.687,1.687,0,0,0-1.318.629,3.451,3.451,0,0,0-.545,2.227v4.738Zm8.336,0h0V84.009h1.072v1.23a2.82,2.82,0,0,1,.946-1.072,2.357,2.357,0,0,1,1.287-.356,2.424,2.424,0,0,1,1.043.225,2.149,2.149,0,0,1,.773.588,2.384,2.384,0,0,1,.44.941,8,8,0,0,1,.146,1.779v5.325H70.455V87.4A4.323,4.323,0,0,0,70.292,86a1.339,1.339,0,0,0-1.3-.922,1.647,1.647,0,0,0-1.361.646,3.65,3.65,0,0,0-.509,2.21v4.73Zm-29.171,0h0V82.125h-3.19V80.713h7.678v1.411H38.052V92.669Zm7.773-8.857h0v1.207a1.727,1.727,0,0,0-1.338.675,2.949,2.949,0,0,0-.619,1.812h1.957v1.208H42.513a3.789,3.789,0,0,0,.668,2.2,1.817,1.817,0,0,0,1.363.741v1.206a2.943,2.943,0,0,1-2.333-1.143,5.183,5.183,0,0,1-.922-3.307,5.432,5.432,0,0,1,.93-3.421A2.883,2.883,0,0,1,44.544,83.812Z" transform="translate(339.496 -300.044)" fill="#a89044"/>
    <path id="Path_2" data-name="Path 2" d="M81.182,45.216h0l8.656-.545a6.212,6.212,0,0,0,.851,3.235A4.32,4.32,0,0,0,94.524,49.7a4.718,4.718,0,0,0,3.065-.917,3.071,3.071,0,0,0,1.232-2.132,2.489,2.489,0,0,0-.812-2.062c-.614-.607-2.1-1.18-4.482-1.718q-5.829-1.356-8.166-3.593a6.673,6.673,0,0,1-2.049-5.719A8.48,8.48,0,0,1,85,29.241a9.9,9.9,0,0,1,4.215-3.194,19.007,19.007,0,0,1,7.3-1.159q5.613,0,8.372,2.111t2.909,6.718l-8.571.5a4.218,4.218,0,0,0-1.174-2.911,4.237,4.237,0,0,0-2.918-.9,3.829,3.829,0,0,0-2.439.676,2.308,2.308,0,0,0-.943,1.649A1.51,1.51,0,0,0,92.3,34a6.753,6.753,0,0,0,2.943,1.09,34.587,34.587,0,0,1,8.259,2.621,7.406,7.406,0,0,1,4.226,7.67A10.251,10.251,0,0,1,105.7,50.63a11.034,11.034,0,0,1-4.678,3.65,18.217,18.217,0,0,1-7.157,1.242q-7.462,0-10.08-2.911A10.539,10.539,0,0,1,81.182,45.216Zm32.36-19.824h9.043l-.92,10.367h9.888l.92-10.367h9.084l-2.628,29.626h-9.084l1.063-11.981h-9.888l-1.063,11.981h-9.043Zm-62.338,0h3.531L51.2,30.1ZM64.518,50.127V43.719h3.227l-2.292-10.65-.934,2.391V25.392h6.644l8.379,29.626H70.074l-1-4.891Zm0-24.735H61.3L51.2,47.341v7.677h5.71l1.851-4.891h5.751V43.719H61.291l3.227-8.259V25.392Zm-41.629,0H32.934l5.022,10,6.8-10H51.2V30.1L41.828,42.608l-1.1,12.409H31.663l1.1-12.409L22.889,25.392ZM51.2,47.341h0l-3.531,7.677H51.2Z" transform="translate(343.111 -281.612)" fill="#e23827"/>
    <path id="Path_3" data-name="Path 3" d="M83.82,25.6l8.38,29.63H82.735l-1.006-4.89H77.175V43.93h3.23l-2.3-10.652-.933,2.392V25.6ZM73.952,43.93l3.223-8.26V25.6H73.958L63.864,47.555v7.677h5.712l1.847-4.89h5.752V43.93ZM60.33,55.232h3.534V47.555Z" transform="translate(330.452 -281.852)" fill="#e23827"/>
    <path id="Path_4" data-name="Path 4" d="M137.506,16.291c19.641.507,44.285,4.543,45.6,18.454C185.494,60.107,123,81.925,87.218,89.536c32.9-4.566,69.1-14.127,97.761-31.961,12.652-7.875,23.33-20.132,16.7-29.679C191.542,13.3,152.642,15.4,137.506,16.291Z" transform="translate(321.361 -278.566)" fill="#005ba1" fill-rule="evenodd"/>
    <path id="Path_5" data-name="Path 5" d="M255.2,13.373a3.773,3.773,0,1,1,3.772,3.818A3.8,3.8,0,0,1,255.2,13.373Zm6.93,0a3.19,3.19,0,0,0-2.341-3.086,3.142,3.142,0,0,0-3.551,1.49,3.225,3.225,0,0,0,.5,3.858,3.129,3.129,0,0,0,3.442.694A3.2,3.2,0,0,0,262.134,13.373Zm-1.981,2.3-1.18-2.021H258.3v2.021h-.665v-4.7h1.191q1.677,0,1.678,1.3a1.3,1.3,0,0,1-.9,1.28l1.27,2.123ZM258.3,11.55v1.563q.084.011.436.011a1.577,1.577,0,0,0,.873-.167.754.754,0,0,0,.224-.637q0-.776-1.006-.776h-.263Z" transform="translate(264.563 -276.555)" fill="#212129"/>
    <g id="Group_1" data-name="Group 1" transform="translate(366.399 -181.588)">
      <path id="Path_6" data-name="Path 6" d="M29.025,146.781H27.15l-.348-8.129-1.527,8.129H23.491l2.006-9.728h2.819l.3,6.814,3.278-6.814h2.852l-2.013,9.728h-1.8l1.895-8.069Z" transform="translate(-23.491 -137.053)" fill="#212129"/>
      <path id="Path_7" data-name="Path 7" d="M40.591,145.091a4.383,4.383,0,0,1,1.092-3.122,3.748,3.748,0,0,1,2.868-1.165,3.263,3.263,0,0,1,2.406.86,3.112,3.112,0,0,1,.866,2.312,4.371,4.371,0,0,1-1.082,2.96,3.642,3.642,0,0,1-2.9,1.247,3.706,3.706,0,0,1-1.744-.4,2.582,2.582,0,0,1-1.134-1.128A3.385,3.385,0,0,1,40.591,145.091Zm5.363-1.36a1.5,1.5,0,0,0-.39-1.085,1.329,1.329,0,0,0-1.006-.408,1.674,1.674,0,0,0-1.082.381,2.458,2.458,0,0,0-.734,1.108,3.96,3.96,0,0,0-.262,1.337,1.71,1.71,0,0,0,.406,1.2,1.327,1.327,0,0,0,1.023.445,1.59,1.59,0,0,0,1.3-.67,3.617,3.617,0,0,0,.748-2.309Z" transform="translate(-29.271 -138.289)" fill="#212129"/>
      <path id="Path_8" data-name="Path 8" d="M53.663,140.972H55.42l-.282,1.367a2.691,2.691,0,0,1,2.131-1.533,2.16,2.16,0,0,1,.872.206l-.721,1.559a1.578,1.578,0,0,0-.544-.093,1.665,1.665,0,0,0-.987.371,2.488,2.488,0,0,0-.784.993,9.98,9.98,0,0,0-.557,1.967l-.459,2.21H52.208Z" transform="translate(-33.201 -138.292)" fill="#212129"/>
      <path id="Path_9" data-name="Path 9" d="M66.96,145.084h-4.72c0,.076-.007.133-.007.173a1.61,1.61,0,0,0,.4,1.134,1.266,1.266,0,0,0,.967.431,1.611,1.611,0,0,0,1.462-.982l1.685.285a3.579,3.579,0,0,1-1.314,1.543,3.414,3.414,0,0,1-1.845.514,3.047,3.047,0,0,1-2.282-.9,3.258,3.258,0,0,1-.878-2.379,4.365,4.365,0,0,1,.793-2.575A3.558,3.558,0,0,1,64.3,140.8a2.661,2.661,0,0,1,2.032.8,3.137,3.137,0,0,1,.754,2.239A5.381,5.381,0,0,1,66.96,145.084Zm-1.587-1.161c0-.084.007-.148.007-.192a1.725,1.725,0,0,0-.347-1.175,1.183,1.183,0,0,0-.931-.392,1.47,1.47,0,0,0-1.046.445,2.384,2.384,0,0,0-.626,1.314Z" transform="translate(-35.977 -138.29)" fill="#212129"/>
      <path id="Path_10" data-name="Path 10" d="M77.284,141.264l.288-1.413h.918l.229-1.128,2.157-1.314-.5,2.442h1.147l-.288,1.413H80.077l-.61,2.953a9.238,9.238,0,0,0-.164.916.435.435,0,0,0,.137.342.761.761,0,0,0,.5.123q.124,0,.623-.047l-.3,1.413a4.941,4.941,0,0,1-1,.1,2.2,2.2,0,0,1-1.449-.388,1.345,1.345,0,0,1-.452-1.078,10.174,10.174,0,0,1,.242-1.5l.583-2.834Z" transform="translate(-41.679 -137.171)" fill="#212129"/>
      <path id="Path_11" data-name="Path 11" d="M85.045,146.781H83.163l2.013-9.728h1.882l-.721,3.463a4.939,4.939,0,0,1,1.187-.726,3.123,3.123,0,0,1,1.18-.222,1.807,1.807,0,0,1,1.337.491,1.739,1.739,0,0,1,.492,1.287,7.277,7.277,0,0,1-.183,1.314l-.852,4.12H87.615l.872-4.2a6.018,6.018,0,0,0,.138-.876.756.756,0,0,0-.216-.564.808.808,0,0,0-.59-.213,1.47,1.47,0,0,0-.9.332,2.873,2.873,0,0,0-.859,1.075,9.689,9.689,0,0,0-.433,1.653Z" transform="translate(-43.667 -137.053)" fill="#212129"/>
      <path id="Path_12" data-name="Path 12" d="M98,142.965l-1.836-.16a2.793,2.793,0,0,1,1.1-1.473,3.639,3.639,0,0,1,2.075-.531,3.014,3.014,0,0,1,1.986.548,1.693,1.693,0,0,1,.643,1.337,4.442,4.442,0,0,1-.056.677q-.056.358-.39,1.884a9.792,9.792,0,0,0-.275,1.766,3.673,3.673,0,0,0,.157,1H99.573a3.674,3.674,0,0,1-.138-.8,2.889,2.889,0,0,1-.951.714,2.565,2.565,0,0,1-1.082.248,1.919,1.919,0,0,1-1.429-.574,2.018,2.018,0,0,1-.564-1.477,2.15,2.15,0,0,1,.619-1.612,3.579,3.579,0,0,1,2.213-.73,8.69,8.69,0,0,0,1.8-.272,2.373,2.373,0,0,0,.118-.637.642.642,0,0,0-.243-.51,1.088,1.088,0,0,0-.721-.206,1.346,1.346,0,0,0-.8.209A1.038,1.038,0,0,0,98,142.965Zm1.79,1.765a3.711,3.711,0,0,1-.452.086,4.253,4.253,0,0,0-1.849.5.77.77,0,0,0-.308.643.751.751,0,0,0,.236.561.858.858,0,0,0,.623.229,1.632,1.632,0,0,0,.8-.209,1.419,1.419,0,0,0,.564-.538,3.7,3.7,0,0,0,.331-1.025Z" transform="translate(-47.807 -138.287)" fill="#212129"/>
      <path id="Path_13" data-name="Path 13" d="M107.886,140.971h1.783l-.183.916a4.9,4.9,0,0,1,1.249-.832,3.07,3.07,0,0,1,1.223-.249,1.823,1.823,0,0,1,1.354.5,1.79,1.79,0,0,1,.5,1.321,8.451,8.451,0,0,1-.217,1.407l-.82,3.988h-1.881l.826-4a8.941,8.941,0,0,0,.183-1.069.769.769,0,0,0-.213-.574.812.812,0,0,0-.593-.209,1.654,1.654,0,0,0-.918.351,2.439,2.439,0,0,0-.793.929,7.937,7.937,0,0,0-.472,1.679l-.6,2.893h-1.881Z" transform="translate(-51.534 -138.291)" fill="#212129"/>
      <path id="Path_14" data-name="Path 14" d="M131.509,148.1h-1.77l-.341-4.485-2.124,4.485h-1.744l-.872-7.047h1.672l.485,4.725,2.17-4.725H130.7l.236,4.725,2.157-4.725h1.888Z" transform="translate(-57.697 -138.374)" fill="#212129"/>
      <path id="Path_15" data-name="Path 15" d="M141.511,146.781h-1.881l2.013-9.728h1.882l-.721,3.463a4.939,4.939,0,0,1,1.187-.726,3.125,3.125,0,0,1,1.18-.222,1.809,1.809,0,0,1,1.338.491,1.738,1.738,0,0,1,.491,1.287,7.324,7.324,0,0,1-.183,1.314l-.852,4.12h-1.882l.872-4.2a6,6,0,0,0,.137-.876.755.755,0,0,0-.216-.564.808.808,0,0,0-.59-.213,1.47,1.47,0,0,0-.9.332,2.873,2.873,0,0,0-.859,1.075,9.689,9.689,0,0,0-.433,1.653Z" transform="translate(-62.759 -137.053)" fill="#212129"/>
      <path id="Path_16" data-name="Path 16" d="M154.466,142.965l-1.836-.16a2.794,2.794,0,0,1,1.1-1.473,3.641,3.641,0,0,1,2.075-.531,3.017,3.017,0,0,1,1.987.548,1.693,1.693,0,0,1,.642,1.337,4.444,4.444,0,0,1-.056.677q-.055.358-.39,1.884a9.734,9.734,0,0,0-.275,1.766,3.684,3.684,0,0,0,.157,1h-1.829a3.67,3.67,0,0,1-.138-.8,2.878,2.878,0,0,1-.951.714,2.564,2.564,0,0,1-1.082.248,1.918,1.918,0,0,1-1.429-.574,2.018,2.018,0,0,1-.564-1.477,2.15,2.15,0,0,1,.619-1.612,3.579,3.579,0,0,1,2.213-.73,8.69,8.69,0,0,0,1.8-.272,2.375,2.375,0,0,0,.118-.637.644.644,0,0,0-.242-.51,1.089,1.089,0,0,0-.721-.206,1.348,1.348,0,0,0-.8.209A1.041,1.041,0,0,0,154.466,142.965Zm1.79,1.765a3.711,3.711,0,0,1-.453.086,4.249,4.249,0,0,0-1.848.5.77.77,0,0,0-.308.643.752.752,0,0,0,.236.561.857.857,0,0,0,.623.229,1.638,1.638,0,0,0,.8-.209,1.422,1.422,0,0,0,.564-.538,3.7,3.7,0,0,0,.331-1.025Z" transform="translate(-66.899 -138.287)" fill="#212129"/>
      <path id="Path_17" data-name="Path 17" d="M163.571,141.264l.288-1.413h.918l.229-1.128,2.157-1.314-.5,2.442h1.147l-.289,1.413h-1.154l-.61,2.953a9.253,9.253,0,0,0-.164.916.436.436,0,0,0,.137.342.762.762,0,0,0,.5.123c.083,0,.29-.016.623-.047l-.3,1.413a4.947,4.947,0,0,1-1,.1,2.2,2.2,0,0,1-1.449-.388,1.347,1.347,0,0,1-.452-1.078,10.2,10.2,0,0,1,.243-1.5l.583-2.834Z" transform="translate(-70.854 -137.171)" fill="#212129"/>
      <path id="Path_18" data-name="Path 18" d="M175.2,141.054h1.876l.472,3.511q.177,1.353.2,1.9a15.234,15.234,0,0,1,1.009-2.282l1.666-3.126h1.993l-4.3,7.738a10.835,10.835,0,0,1-.836,1.347,2.211,2.211,0,0,1-.734.6,2.25,2.25,0,0,1-1.033.219,4.991,4.991,0,0,1-1.344-.212l.164-1.42a2.359,2.359,0,0,0,.663.1q.865,0,1.422-1.327Z" transform="translate(-74.434 -138.374)" fill="#212129"/>
      <path id="Path_19" data-name="Path 19" d="M186.337,145.091a4.38,4.38,0,0,1,1.092-3.122A3.747,3.747,0,0,1,190.3,140.8a3.263,3.263,0,0,1,2.406.86,3.112,3.112,0,0,1,.866,2.312,4.371,4.371,0,0,1-1.082,2.96,3.642,3.642,0,0,1-2.9,1.247,3.7,3.7,0,0,1-1.744-.4,2.587,2.587,0,0,1-1.135-1.128A3.389,3.389,0,0,1,186.337,145.091Zm5.363-1.36a1.506,1.506,0,0,0-.39-1.085,1.329,1.329,0,0,0-1.006-.408,1.672,1.672,0,0,0-1.082.381,2.448,2.448,0,0,0-.734,1.108,3.956,3.956,0,0,0-.262,1.337,1.709,1.709,0,0,0,.407,1.2,1.325,1.325,0,0,0,1.023.445,1.591,1.591,0,0,0,1.3-.67A3.616,3.616,0,0,0,191.7,143.73Z" transform="translate(-78.55 -138.289)" fill="#212129"/>
      <path id="Path_20" data-name="Path 20" d="M199.761,141.054h1.882l-.859,4.174a6.643,6.643,0,0,0-.157.935.709.709,0,0,0,.223.525.78.78,0,0,0,.571.219,1.323,1.323,0,0,0,.492-.1,2.1,2.1,0,0,0,.5-.292,2.663,2.663,0,0,0,.459-.448,2.872,2.872,0,0,0,.381-.664,6.382,6.382,0,0,0,.269-1l.695-3.358h1.882l-1.456,7.047h-1.757l.2-.956a3.545,3.545,0,0,1-2.511,1.122,1.707,1.707,0,0,1-1.842-1.831,9.136,9.136,0,0,1,.222-1.453Z" transform="translate(-82.739 -138.374)" fill="#212129"/>
      <path id="Path_21" data-name="Path 21" d="M216.447,141.264l.288-1.413h.918l.229-1.128,2.157-1.314-.5,2.442h1.147l-.289,1.413H219.24l-.61,2.953a9.222,9.222,0,0,0-.164.916.436.436,0,0,0,.137.342.762.762,0,0,0,.5.123c.083,0,.29-.016.623-.047l-.3,1.413a4.949,4.949,0,0,1-1,.1,2.2,2.2,0,0,1-1.449-.388,1.346,1.346,0,0,1-.452-1.078,10.184,10.184,0,0,1,.243-1.5l.583-2.834Z" transform="translate(-88.732 -137.171)" fill="#212129"/>
      <path id="Path_22" data-name="Path 22" d="M224.208,146.781h-1.882l2.013-9.728h1.882l-.721,3.463a4.946,4.946,0,0,1,1.186-.726,3.125,3.125,0,0,1,1.18-.222,1.808,1.808,0,0,1,1.338.491,1.739,1.739,0,0,1,.492,1.287,7.276,7.276,0,0,1-.183,1.314l-.852,4.12h-1.882l.872-4.2a6.052,6.052,0,0,0,.138-.876.755.755,0,0,0-.217-.564.806.806,0,0,0-.59-.213,1.47,1.47,0,0,0-.9.332,2.873,2.873,0,0,0-.859,1.075,9.678,9.678,0,0,0-.433,1.653Z" transform="translate(-90.72 -137.053)" fill="#212129"/>
      <path id="Path_23" data-name="Path 23" d="M235.931,139.733h1.881l-1.455,7.047h-1.882Zm.55-2.68h1.882l-.354,1.725h-1.881Z" transform="translate(-94.827 -137.053)" fill="#212129"/>
      <path id="Path_24" data-name="Path 24" d="M241.4,140.971h1.783l-.183.916a4.905,4.905,0,0,1,1.248-.832,3.072,3.072,0,0,1,1.223-.249,1.826,1.826,0,0,1,1.354.5,1.791,1.791,0,0,1,.494,1.321,8.442,8.442,0,0,1-.216,1.407l-.82,3.988h-1.882l.826-4a8.921,8.921,0,0,0,.183-1.069.768.768,0,0,0-.213-.574.811.811,0,0,0-.593-.209,1.653,1.653,0,0,0-.918.352,2.442,2.442,0,0,0-.794.929,7.947,7.947,0,0,0-.472,1.679l-.6,2.893h-1.882Z" transform="translate(-96.678 -138.291)" fill="#212129"/>
      <path id="Path_25" data-name="Path 25" d="M252.047,146.781l2.013-9.728h1.881l-1.049,5.063,2.452-2.382h2.445l-2.8,2.562,1.488,4.485H256.6l-.957-3.258-1.272,1.141-.439,2.117Z" transform="translate(-100.769 -137.053)" fill="#212129"/>
      <path id="Path_26" data-name="Path 26" d="M264.635,148.828H266.5l-.38,1.838h-1.862Z" transform="translate(-104.896 -140.94)" fill="#212129"/>
    </g>
    <rect id="Rectangle_1" data-name="Rectangle 1" width="2.896" height="6.364" transform="translate(406.78 -237.896)" fill="#e23827"/>
  </g>
</svg>
